<svg xmlns="http://www.w3.org/2000/svg" viewBox="0 0 512 512" class="svg-img-icon">
<path class="st0" d="M70.3 193.9c2.6-6.1 5.6-12 8.7-17.7 4-7.3 8.4-14.1 13.1-20.7 2.4-3.3 7.1-4.1 10.5-1.7 3.3 2.4 4.1 7.1 1.7 10.5 -4.5 6.2-8.5 12.6-12.2 19.2 -1.9 3.4-3.7 6.9-5.4 10.4H114c4.2 0 7.5 3.3 7.5 7.5v35.5V267c0 6.9-1.5 13.5-4.2 19.5 7.9 3.3 14.6 7.5 19.7 12.3 7.4 6.9 11.6 15.2 11.6 24.2v36.6c0 4.1-3.4 7.5-7.5 7.5H94.5c2.5 4.2 5.1 8.4 7.9 12.4 5.2 7.5 10.9 14.5 17 20.9 2.8 3 2.7 7.7-0.3 10.6 -3 2.8-7.7 2.7-10.6-0.3 -6.7-7.1-12.8-14.7-18.4-22.6 -4.6-6.7-8.9-13.7-12.7-20.9h-71c-4.1 0-7.5-3.4-7.5-7.5v-36.6c0-9 4.2-17.2 11.4-24.1 5.2-4.9 12-9.2 19.9-12.5 -2.7-6-4.2-12.6-4.2-19.5v-30.1 -13c0-8.3 3.4-15.8 8.8-21.2 5.4-5.4 13-8.8 21.2-8.8L70.3 193.9 70.3 193.9zM468.8 255.7l-39.6-13.4L403.3 255v12c0 9 3.7 17.2 9.6 23.1 5.9 5.9 14.1 9.6 23.1 9.6 9 0 17.2-3.7 23.1-9.6 5.9-5.9 9.6-14.1 9.6-23.1V255.7zM403.3 238.3l21.7-10.6c1.8-1 4-1.3 6.1-0.6l37.7 12.8v-16c0-4.1-1.7-7.9-4.4-10.6 -2.7-2.7-6.5-4.4-10.6-4.4h-35.4c-4.1 0-7.9 1.7-10.6 4.4 -2.7 2.7-4.4 6.5-4.4 10.6L403.3 238.3 403.3 238.3zM41 229.4h65.5v-20.5H56c-4.1 0-7.9 1.7-10.6 4.4 -2.7 2.7-4.4 6.5-4.4 10.6L41 229.4 41 229.4zM106.5 244.4H41V267c0 9 3.7 17.2 9.6 23.1 5.9 5.9 14.1 9.6 23.1 9.6 9 0 17.2-3.7 23.1-9.6 6-5.9 9.6-14.1 9.6-23.1L106.5 244.4 106.5 244.4zM287.6 392.7c-10.7 1.6-28.2 1.4-42.7-11.4 -5.1 2.9-13.1 6.2-22.8 5.4v18.2c0 9 3.7 17.2 9.6 23.1 5.9 5.9 14.1 9.6 23.1 9.6 9 0 17.2-3.7 23.1-9.6 5.9-6 9.6-14.1 9.6-23.1L287.6 392.7zM222.2 371.7c10.9 1.5 18.1-5.1 18.1-5.1l0.5-0.5 0.2-0.2c3.1-2.7 7.8-2.4 10.5 0.8 11.7 13.5 28 12.5 36.1 10.9v-15.8c0-4.1-1.7-7.9-4.4-10.6 -2.7-2.7-6.5-4.4-10.6-4.4h-35.4c-4.1 0-7.9 1.7-10.6 4.4 -2.7 2.7-4.4 6.5-4.4 10.6L222.2 371.7 222.2 371.7zM108.9 299.3c-9 9.8-21.7 15.5-35.1 15.5s-26.1-5.6-35.1-15.4c-7.5 2.8-13.6 6.4-18 10.5 -4.3 4.1-6.7 8.6-6.7 13.3v29.1h119.7v-29.1c0-4.7-2.5-9.2-6.9-13.4C122.4 305.6 116.3 302 108.9 299.3L108.9 299.3zM483.8 267c0 6.9-1.5 13.5-4.2 19.5 7.9 3.3 14.7 7.6 19.9 12.4 7.3 6.9 11.5 15.1 11.5 24.1v36.6c0 4.1-3.3 7.5-7.5 7.5h-71.3c-3.9 7-8.2 13.9-12.9 20.5 -5.6 7.9-11.8 15.4-18.5 22.5 -2.8 3-7.6 3.1-10.6 0.3 -3-2.8-3.1-7.6-0.3-10.6 6.2-6.6 12-13.6 17.2-20.9 2.7-3.9 5.4-7.8 7.8-11.8h-46.2c-4.1 0-7.5-3.4-7.5-7.5v-36.6c0-9 4.2-17.3 11.6-24.2 5.1-4.8 11.9-9.1 19.8-12.4 -2.7-6-4.2-12.6-4.2-19.5v-43.1c0-8.3 3.4-15.8 8.8-21.2 5.4-5.4 13-8.8 21.2-8.8h4.9c-1.6-3.5-3.4-6.9-5.2-10.2 -3.7-6.7-7.9-13.2-12.4-19.4 -2.4-3.3-1.7-8 1.6-10.5 3.3-2.4 8-1.7 10.5 1.6 4.9 6.7 9.4 13.7 13.4 21 3.1 5.6 6 11.5 8.6 17.5h14.1c8.3 0 15.8 3.4 21.2 8.8 5.4 5.4 8.8 13 8.8 21.2L483.8 267 483.8 267zM471.1 299.3c-9 9.8-21.7 15.4-35.1 15.4 -13.4 0-26-5.6-35.1-15.4 -7.4 2.8-13.5 6.4-17.9 10.5 -4.3 4.1-6.8 8.7-6.8 13.3v29.1h119.7v-29.1c0-4.6-2.5-9.2-6.8-13.3C484.8 305.7 478.6 302.1 471.1 299.3L471.1 299.3zM302.6 404.9c0 6.9-1.5 13.6-4.2 19.5 7.9 3.3 14.7 7.6 19.9 12.5 2.8 2.7 5.2 5.5 7 8.6 6-2.6 11.8-5.4 17.5-8.6 7.9-4.4 15.5-9.4 22.7-14.9 3.3-2.5 8-1.9 10.5 1.4 2.5 3.3 1.9 8-1.4 10.5 -7.8 5.9-16 11.3-24.5 16.1 -6.6 3.7-13.4 7-20.4 9.9 0 0.4 0 0.8 0 1.2v36.6c0 4.1-3.3 7.5-7.5 7.5H187.6c-4.1 0-7.5-3.3-7.5-7.5V461c0-0.4 0-0.8 0-1.2 -7.1-2.9-14.1-6.2-20.8-9.9 -8.6-4.6-16.7-9.9-24.5-15.7 -3.3-2.5-4-7.1-1.5-10.5 2.5-3.3 7.2-4 10.5-1.5 7.2 5.4 14.7 10.2 22.7 14.5 5.8 3.2 11.9 6.1 18.1 8.6 1.8-3 4.1-5.8 6.9-8.5 5.2-4.9 12-9.2 20-12.5 -2.7-6-4.2-12.6-4.2-19.6v-43.1c0-8.2 3.4-15.8 8.8-21.2 5.4-5.4 13-8.8 21.2-8.8h35.4c8.3 0 15.8 3.4 21.2 8.8 5.4 5.4 8.8 13 8.8 21.2L302.6 404.9 302.6 404.9zM290 437.2c-9 9.8-21.7 15.4-35.1 15.4 -13.4 0-26.1-5.6-35.1-15.4 -7.5 2.8-13.7 6.4-18.1 10.6 -4.3 4.1-6.7 8.6-6.7 13.2v29.1h119.7V461c0-4.6-2.5-9.2-6.7-13.3C303.6 443.6 297.5 440 290 437.2L290 437.2zM125.6 139.7c-3 2.9-7.7 2.8-10.6-0.2 -2.9-3-2.8-7.7 0.2-10.6 6-5.7 12.2-11.1 18.7-16 5.4-4.1 11.1-7.9 17.1-11.5 1.9-25.6 13.1-48.6 30.2-65.7 18.8-18.8 44.9-30.5 73.6-30.5 28.8 0 54.8 11.7 73.6 30.5 17 17 28.1 39.8 30.2 65.2 5.9 3.6 11.5 7.5 17 11.7 6.5 5 12.8 10.4 18.8 16.2 3 2.9 3 7.6 0.2 10.6 -2.9 2.9-7.6 3-10.6 0.1 -5.5-5.4-11.4-10.4-17.5-15 -2.6-2-5.3-3.9-7.9-5.8 -2.3 28.5-15.1 47.8-27.3 66.4 -11.1 16.8-21.7 32.9-21.8 54.5l0 34.7c0 10-4.1 19-10.7 25.6 -6.5 6.5-15.6 10.6-25.6 10.6h-36.9c-10 0-19-4.1-25.6-10.6 -6.5-6.6-10.6-15.6-10.6-25.6l0-34.7c-0.2-21.6-10.8-37.7-21.8-54.5 -12.2-18.5-24.9-37.7-27.2-66 -2.8 1.9-5.6 3.8-8.2 5.8C136.8 129.6 131 134.5 125.6 139.7L125.6 139.7zM215.2 263h79.4v-15.2h-79.4V263zM294.3 278h-78.7c0.8 4.4 2.9 8.3 5.9 11.4 3.9 3.9 9.2 6.2 15 6.2h36.9c5.8 0 11.1-2.4 15-6.2C291.4 286.3 293.5 282.4 294.3 278L294.3 278zM247.7 166.6c-1.2-4.5-3.3-10.6-5.8-17.6 -6.8-19.6-15.8-45.7-15.8-65.4 0-18.9 7.2-32.4 28.8-32.4 21.5 0 28.8 13.5 28.8 32.4 0 19.7-9 45.8-15.8 65.4 -2.4 7-4.6 13.2-5.8 17.7 -1.1 4-5.2 6.3-9.2 5.2C250.3 171.2 248.3 169.1 247.7 166.6L247.7 166.6zM241.1 83.7c0 16.4 7.6 39.2 13.8 57.3 6.2-18.1 13.8-40.9 13.8-57.3 0-10.1-3.5-17.4-13.8-17.4C244.6 66.3 241.1 73.5 241.1 83.7L241.1 83.7zM247.4 193.1c0-4.1 3.3-7.5 7.5-7.5 4.1 0 7.5 3.3 7.5 7.5v7.8c0 4.1-3.4 7.5-7.5 7.5 -4.1 0-7.5-3.3-7.5-7.5L247.4 193.1zM214.8 232.8H295c2-22.4 12.8-38.8 24-55.8 12.3-18.7 25.1-38.2 25.1-67.5 0-24.6-10-46.9-26.1-63s-38.4-26.1-63-26.1c-24.6 0-46.9 10-63 26.1 -16.1 16.1-26.1 38.4-26.1 63 0 29.4 12.8 48.9 25.1 67.5C202.1 194 212.9 210.4 214.8 232.8L214.8 232.8z"/></svg>