<?xml version="1.0" encoding="utf-8"?>
<!-- Generator: Adobe Illustrator 25.2.3, SVG Export Plug-In . SVG Version: 6.00 Build 0)  -->
<svg version="1.1" id="Capa_1" xmlns="http://www.w3.org/2000/svg" xmlns:xlink="http://www.w3.org/1999/xlink" x="0px" y="0px"
	 viewBox="0 0 512 512" style="enable-background:new 0 0 512 512;" xml:space="preserve">
<g id="XMLID_1883_">
	<g id="XMLID_543_">
		<g id="XMLID_544_">
			<path id="XMLID_546_" d="M418,324c-32.5,0-61.2,16.6-78.1,41.8l-130.1-68.2c5.3-12.8,8.2-26.8,8.2-41.5c0-14.4-2.8-28.5-8.2-41.6
				l130.1-68.2c16.9,25.2,45.6,41.8,78.1,41.8c51.8,0,94-42.2,94-94S469.8,0,418,0s-94,42.2-94,94c0,12.2,2.3,23.8,6.6,34.5
				l-130.1,68.2c-10.7-16.5-25.6-29.8-43.2-38.5c-5-2.5-10.9-0.4-13.4,4.5c-2.4,5-0.4,10.9,4.5,13.4C179,191.3,198,221.9,198,256
				c0,21.2-7.4,40.6-19.8,55.9c-8.4-16.1-22.1-28.6-38.6-35.7c6.5-7.3,10.5-16.8,10.5-27.3v-7.8c0-22.6-18.4-41-41-41
				S68,218.6,68,241.2v7.8c0,10.5,4,20.1,10.5,27.3c-16.4,7-30.2,19.6-38.6,35.7C27.4,296.6,20,277.2,20,256
				c0-34.1,19-64.7,49.6-79.8c4.9-2.4,7-8.4,4.5-13.4c-2.4-5-8.4-7-13.4-4.5c-18,8.9-33.1,22.5-43.9,39.5C5.8,215.1,0,235.3,0,256
				c0,60.1,48.9,109,109,109c38.3,0,72-19.8,91.5-49.8l130.1,68.2c-4.2,10.7-6.6,22.4-6.6,34.5c0,51.8,42.2,94,94,94s94-42.2,94-94
				S469.8,324,418,324z M374.1,153.5c7.4-17.4,24.6-29.1,43.9-29.1s36.6,11.7,43.9,29.1c-12.3,9.1-27.5,14.5-43.9,14.5
				S386.4,162.6,374.1,153.5z M401.7,88v-6.6c0-9,7.3-16.3,16.3-16.3c9,0,16.3,7.3,16.3,16.3V88c0,9-7.3,16.3-16.3,16.3
				C409,104.4,401.7,97,401.7,88z M418,20c40.8,0,74,33.2,74,74c0,16.8-5.6,32.3-15.1,44.7c-7-12.4-17.8-22.1-30.5-28.1
				c5-6.2,7.9-14.1,7.9-22.6v-6.6c0-20-16.3-36.3-36.3-36.3c-20,0-36.3,16.3-36.3,36.3V88c0,8.6,3,16.4,7.9,22.6
				c-12.8,5.9-23.5,15.7-30.5,28.1C349.6,126.3,344,110.8,344,94C344,53.2,377.2,20,418,20L418,20z M88,241.2c0-11.6,9.4-21,21.1-21
				s21,9.4,21,21v7.8c0,11.6-9.4,21-21,21S88,260.6,88,249V241.2z M55,326.7c8.6-21.9,30-36.7,54-36.7c24,0,45.3,14.8,54,36.7
				c-15,11.5-33.7,18.3-54,18.3C88.7,345,70,338.2,55,326.7L55,326.7z M374.1,477.5c7.4-17.4,24.6-29.1,43.9-29.1
				s36.6,11.7,43.9,29.1c-12.3,9.1-27.5,14.5-43.9,14.5S386.4,486.6,374.1,477.5z M401.7,412v-6.6c0-9,7.3-16.3,16.3-16.3
				c9,0,16.3,7.3,16.3,16.3v6.6c0,9-7.3,16.3-16.3,16.3C409,428.4,401.7,421,401.7,412z M476.9,462.7c-7-12.4-17.8-22.1-30.5-28.1
				c5-6.2,7.9-14.1,7.9-22.6v-6.6c0-20-16.3-36.3-36.3-36.3c-20,0-36.3,16.3-36.3,36.3v6.6c0,8.5,3,16.4,7.9,22.6
				c-12.8,5.9-23.5,15.7-30.5,28.1c-9.5-12.4-15.1-27.9-15.1-44.7c0-40.8,33.2-74,74-74s74,33.2,74,74
				C492,434.8,486.4,450.3,476.9,462.7L476.9,462.7z"/>
			<path id="XMLID_545_" d="M109,167c2.6,0,5.2-1.1,7.1-2.9c1.9-1.9,2.9-4.4,2.9-7.1s-1.1-5.2-2.9-7.1c-1.9-1.9-4.4-2.9-7.1-2.9
				c-2.6,0-5.2,1.1-7.1,2.9S99,154.4,99,157c0,2.6,1.1,5.2,2.9,7.1C103.8,165.9,106.4,167,109,167z"/>
		</g>
	</g>
</g>
</svg>
