<?xml version="1.0" encoding="utf-8"?>
<!-- Generator: Adobe Illustrator 25.2.3, SVG Export Plug-In . SVG Version: 6.00 Build 0)  -->
<svg version="1.1" id="Layer_3" xmlns="http://www.w3.org/2000/svg" xmlns:xlink="http://www.w3.org/1999/xlink" x="0px" y="0px"
	 viewBox="0 0 512 512" style="enable-background:new 0 0 512 512;" xml:space="preserve">
<style type="text/css">
	.st0{fill:#231F20;stroke:#231F20;stroke-width:8;stroke-miterlimit:10;}
</style>
<path class="st0" d="M276,226L276,226l-0.7-0.2c-3.1-0.9-6.3-1.5-9.6-1.7l-0.3-0.1l0,0c-0.5,0-0.9-0.1-1.4-0.1h-0.2
	c5.1-6.7,8.2-15,8.2-24c0-22.1-17.9-40-40-40s-40,17.9-40,40c0,9,3.1,17.3,8.2,24H200c-22.1,0-40,18-40,40v16c0,4.4,3.6,8,8,8h128
	c4.4,0,8-3.6,8-8v-16C304,246.2,292.2,231.2,276,226L276,226z M208,200c0-13.2,10.8-24,24-24s24,10.8,24,24s-10.8,24-24,24
	S208,213.2,208,200z M288,272H176v-8c0-13.2,10.8-24,24-24h63.3l8.8,1.5c9.2,3.4,15.9,12.1,15.9,22.5L288,272z"/>
<path class="st0" d="M46.9,263.9l18.6,83.7C55.2,352.9,48,363.6,48,376c0,17.6,14.4,32,32,32c6.4,0,12.4-1.9,17.4-5.2l52.6,48.3
	c-3.8,6.1-6.1,13.2-6.1,20.9v16c0,4.4,3.6,8,8,8h112c4.4,0,8-3.6,8-8v-13l78.2-89.5l103.2,103.2c4.7,4.7,11,7.3,17.7,7.3
	c6.6,0,13-2.7,17.7-7.3s7.3-11.1,7.3-17.7c0-6.7-2.6-12.9-7.3-17.7L383.2,347.9l52.4-59.9H488c4.4,0,8-3.6,8-8v-16
	c0-19.6-14.2-35.9-32.8-39.3c5.4-6.8,8.8-15.4,8.8-24.7c0-22.1-17.9-40-40-40c-3.1,0-6,0.4-8.9,1.1l-7.8-17.1H448c4.4,0,8-3.6,8-8
	v-16c0-19.6-14.2-35.9-32.8-39.3c5.4-6.8,8.8-15.4,8.8-24.7c0-22.1-17.9-40-40-40c-20,0-36.5,14.8-39.4,34.1L118.4,62.4
	C114.2,49.4,102.3,40,88,40c-17.6,0-32,14.4-32,32c0,12.1,6.8,22.5,16.8,28l-25,100C30.2,200.2,16,214.4,16,232
	C16,249.3,29.8,263.3,46.9,263.9L46.9,263.9z M102.6,100.3l43.4,48.2c-21,21.6-34,51.1-34,83.5c0,0.2,0,0.5,0,0.7l-32.7-7.3
	c-1.9-9.3-8-17-16.1-21.4l25-100.1C93.4,103.9,98.3,102.5,102.6,100.3z M119.4,78.3l234-12.3c1.4,5.4,4,10.4,7.4,14.7
	C342.2,84.1,328,100.4,328,120v13.8l-13.8,11C292.7,124.5,263.8,112,232,112c-28,0-53.6,9.7-74.1,25.8l-43.3-48.1
	C116.9,86.3,118.5,82.5,119.4,78.3z M232,336c-57.3,0-104-46.7-104-104s46.7-104,104-104s104,46.7,104,104S289.3,336,232,336z
	 M78.4,241.6l35,7.8c7.4,50.8,46.7,91.3,97,100.5l-2.1,18.1c-0.1,0-0.2,0-0.3,0c-22.1,0-40,17.9-40,40c0,9.4,3.4,17.9,8.8,24.7
	c-5.8,1.1-11.2,3.4-15.8,6.7l-52.8-48.5c2.4-4.5,3.8-9.5,3.8-14.9c0-17.3-13.8-31.3-30.9-31.9l-18.6-83.7
	C70,256.5,75.8,249.8,78.4,241.6L78.4,241.6z M208,432c-13.2,0-24-10.8-24-24s10.8-24,24-24s24,10.8,24,24S221.2,432,208,432z
	 M80,392c-8.8,0-16-7.2-16-16s7.2-16,16-16s16,7.2,16,16S88.8,392,80,392z M256,480h-96v-8c0-13.2,10.8-24,24-24h48
	c13.2,0,24,10.8,24,24V480z M268.1,455.1c-5.4-11.5-16.1-20-28.9-22.4c5.4-6.8,8.8-15.4,8.8-24.7c0-16.4-9.9-30.4-24-36.6l2.3-19.7
	c1.9,0.1,3.8,0.3,5.7,0.3c24.1,0,46.4-7.2,65.3-19.4l41.6,41.6L268.1,455.1z M480,471c0,2.4-1,4.7-2.6,6.3c-3.4,3.3-9.3,3.3-12.7,0
	L310.2,322.9c4.5-3.9,8.8-8.2,12.7-12.7l154.5,154.5C479.1,466.4,480,468.6,480,471L480,471z M371.8,336.5l-39.3-39.3
	c8.2-12.6,14.1-26.8,17.1-42l18.9,3.3c-0.2,1.8-0.6,3.6-0.6,5.4v16c0,4.4,3.6,8,8,8h38.4L371.8,336.5z M480,264v8h-96v-8
	c0-13.2,10.8-24,24-24h48C469.2,240,480,250.8,480,264z M456,200c0,13.2-10.8,24-24,24s-24-10.8-24-24s10.8-24,24-24
	S456,186.8,456,200z M408.5,167.8c-10,7.3-16.5,19-16.5,32.2c0,9.4,3.4,17.9,8.8,24.7c-11.4,2.1-21,9-26.8,18.6l-22.3-3.9
	c0.1-2.4,0.4-4.9,0.4-7.4c0-28.6-10.1-54.9-26.8-75.5l15.6-12.5h56.9L408.5,167.8z M440,120v8h-96v-8c0-13.2,10.8-24,24-24h48
	C429.2,96,440,106.8,440,120z M392,32c13.2,0,24,10.8,24,24s-10.8,24-24,24s-24-10.8-24-24S378.8,32,392,32z M88,56
	c8.8,0,16,7.2,16,16s-7.2,16-16,16s-16-7.2-16-16S79.2,56,88,56z M48,216c8.8,0,16,7.2,16,16s-7.2,16-16,16s-16-7.2-16-16
	S39.2,216,48,216z"/>
</svg>
